<svg width="800" height="169" viewBox="0 0 800 169" fill="none" xmlns="http://www.w3.org/2000/svg">
<rect width="800" height="167.829" transform="translate(0.00317383 0.585571)" fill="black"/>
<path d="M391.646 30.3788C400.915 27.9911 410.719 28.8048 419.468 32.6884C427.841 36.4056 434.778 42.7269 439.256 50.6942C439.588 51.2864 439.355 52.0311 438.754 52.3466L418.874 62.7743C418.273 63.0896 417.533 62.855 417.176 62.2772C415.323 59.2762 412.602 56.8937 409.361 55.455C405.745 53.8494 401.691 53.5128 397.859 54.4999C395.185 55.1889 392.727 56.494 390.674 58.2919C390.356 58.2191 390.06 58.073 389.795 57.8817C389.065 57.3548 387.438 56.3262 385.396 55.9315C382.607 55.3923 378.696 58.1863 378.673 58.203C378.701 58.1918 381.588 57.0542 383.852 59.1014C385.378 60.482 385.879 62.1214 386.043 63.0507C386.102 63.3821 386.203 63.7096 386.365 64.0018C385.211 66.4449 384.63 69.137 384.688 71.871C384.74 74.3544 385.318 76.7812 386.365 78.9979C386.203 79.2903 386.102 79.6175 386.043 79.9491C385.879 80.8783 385.378 82.5185 383.852 83.8993C381.591 85.9435 378.709 84.812 378.673 84.7977C378.711 84.8253 382.613 87.6073 385.396 87.0692C387.438 86.6745 389.065 85.646 389.795 85.119C390.06 84.9275 390.356 84.7796 390.675 84.7069C392.918 86.6708 395.636 88.0424 398.582 88.6698C402.452 89.494 406.488 88.9864 410.033 87.2294C413.21 85.6549 415.828 83.1596 417.553 80.0829C417.885 79.4906 418.614 79.2248 419.229 79.5145L427.585 83.4569C427.619 83.8083 427.639 84.2606 427.639 84.6639C427.66 86.7866 427.102 89.0932 425.941 89.6473C425.027 90.1622 424.186 89.8608 422.729 88.9218C422.027 88.4913 421.233 87.9538 420.168 87.6591C419.104 87.3429 417.815 87.5317 416.907 88.0292C414.601 89.097 414.157 92.021 414.681 93.8427C415.159 95.7908 416.167 97.4915 417.596 98.8329C417.629 98.8634 417.664 98.8917 417.698 98.9218L414.812 100.419L421.718 100.149L418.189 94.3895L418.304 97.3798C416.395 95.0663 415.592 90.8855 417.898 90.0995C419.028 89.6059 419.869 90.1097 421.237 91.1298C421.906 91.6108 422.661 92.1999 423.735 92.5702C424.804 92.9624 426.187 92.8647 427.194 92.41C430.451 90.7772 430.884 87.6238 431.17 85.1483L439.531 89.0927C440.145 89.3826 440.41 90.1169 440.103 90.7225C435.965 98.8719 429.302 105.48 421.094 109.548C412.517 113.798 402.756 115.026 393.394 113.032C384.032 111.038 375.618 105.94 369.518 98.5643C363.417 91.1884 359.987 81.9672 359.784 72.3973C359.582 62.8278 362.619 53.4707 368.402 45.8436C374.186 38.2166 382.376 32.7666 391.646 30.3788Z" fill="#E0002B" fill-opacity="0.99"/>
<path d="M366.457 128.792H363.296C363.274 128.53 363.214 128.293 363.117 128.08C363.024 127.867 362.893 127.684 362.725 127.531C362.56 127.374 362.36 127.254 362.125 127.172C361.89 127.086 361.623 127.043 361.324 127.043C360.801 127.043 360.358 127.17 359.996 127.424C359.637 127.678 359.364 128.043 359.178 128.517C358.995 128.991 358.903 129.561 358.903 130.226C358.903 130.928 358.997 131.517 359.183 131.991C359.374 132.462 359.648 132.817 360.007 133.056C360.366 133.291 360.797 133.409 361.301 133.409C361.589 133.409 361.847 133.373 362.075 133.302C362.303 133.228 362.501 133.121 362.669 132.983C362.837 132.845 362.973 132.678 363.078 132.484C363.186 132.286 363.259 132.064 363.296 131.817L366.457 131.84C366.419 132.325 366.283 132.82 366.047 133.325C365.812 133.825 365.478 134.288 365.044 134.714C364.615 135.136 364.083 135.476 363.448 135.734C362.812 135.992 362.075 136.121 361.234 136.121C360.181 136.121 359.236 135.895 358.399 135.443C357.566 134.991 356.906 134.326 356.421 133.448C355.939 132.57 355.698 131.496 355.698 130.226C355.698 128.948 355.945 127.873 356.438 126.998C356.931 126.121 357.596 125.457 358.432 125.009C359.269 124.557 360.203 124.331 361.234 124.331C361.959 124.331 362.626 124.43 363.235 124.628C363.843 124.826 364.378 125.116 364.837 125.497C365.297 125.874 365.666 126.339 365.947 126.892C366.227 127.445 366.397 128.078 366.457 128.792ZM373.563 129.06V131.391H368.184V129.06H373.563ZM375.045 126.998V124.488H385.019V126.998H381.568V135.964H378.497V126.998H375.045ZM387.724 135.964H384.362L388.15 124.488H392.409L396.197 135.964H392.835L390.324 127.648H390.235L387.724 135.964ZM387.097 131.436H393.417V133.767H387.097V131.436ZM407.231 124.488V135.964H404.631L400.485 129.935H400.417V135.964H397.302V124.488H399.947L404.026 130.495H404.116V124.488H407.231ZM411.82 124.488V135.964H408.705V124.488H411.82ZM419.483 128.074C419.453 127.701 419.313 127.409 419.063 127.2C418.816 126.991 418.441 126.886 417.936 126.886C417.615 126.886 417.352 126.926 417.146 127.004C416.945 127.079 416.795 127.181 416.698 127.312C416.601 127.443 416.551 127.592 416.547 127.76C416.539 127.899 416.564 128.024 416.62 128.136C416.679 128.244 416.773 128.343 416.9 128.433C417.027 128.519 417.189 128.597 417.387 128.668C417.585 128.739 417.821 128.803 418.093 128.859L419.035 129.06C419.67 129.195 420.213 129.372 420.665 129.593C421.117 129.813 421.487 130.073 421.775 130.372C422.062 130.667 422.273 130.999 422.408 131.369C422.546 131.739 422.617 132.142 422.621 132.579C422.617 133.334 422.428 133.973 422.055 134.496C421.681 135.019 421.147 135.417 420.452 135.689C419.761 135.962 418.93 136.098 417.959 136.098C416.961 136.098 416.091 135.951 415.348 135.656C414.608 135.361 414.033 134.907 413.622 134.294C413.215 133.678 413.009 132.889 413.005 131.929H415.964C415.983 132.281 416.07 132.576 416.227 132.815C416.384 133.054 416.605 133.235 416.889 133.358C417.176 133.482 417.518 133.543 417.914 133.543C418.246 133.543 418.525 133.502 418.749 133.42C418.973 133.338 419.143 133.224 419.259 133.078C419.375 132.932 419.434 132.766 419.438 132.579C419.434 132.404 419.377 132.251 419.264 132.12C419.156 131.985 418.977 131.866 418.727 131.761C418.476 131.653 418.138 131.552 417.712 131.459L416.569 131.212C415.553 130.992 414.752 130.624 414.165 130.108C413.583 129.589 413.293 128.881 413.297 127.985C413.293 127.256 413.487 126.619 413.88 126.074C414.276 125.525 414.823 125.097 415.521 124.791C416.224 124.484 417.029 124.331 417.936 124.331C418.863 124.331 419.664 124.486 420.34 124.796C421.016 125.106 421.538 125.543 421.904 126.107C422.273 126.668 422.46 127.323 422.464 128.074H419.483ZM423.492 126.998V124.488H433.466V126.998H430.015V135.964H426.944V126.998H423.492ZM440.825 128.074C440.795 127.701 440.655 127.409 440.405 127.2C440.158 126.991 439.783 126.886 439.278 126.886C438.957 126.886 438.694 126.926 438.488 127.004C438.287 127.079 438.137 127.181 438.04 127.312C437.943 127.443 437.892 127.592 437.889 127.76C437.881 127.899 437.906 128.024 437.962 128.136C438.021 128.244 438.115 128.343 438.242 128.433C438.369 128.519 438.531 128.597 438.729 128.668C438.927 128.739 439.163 128.803 439.435 128.859L440.377 129.06C441.012 129.195 441.555 129.372 442.007 129.593C442.459 129.813 442.829 130.073 443.117 130.372C443.404 130.667 443.615 130.999 443.75 131.369C443.888 131.739 443.959 132.142 443.963 132.579C443.959 133.334 443.77 133.973 443.397 134.496C443.023 135.019 442.489 135.417 441.794 135.689C441.103 135.962 440.272 136.098 439.301 136.098C438.303 136.098 437.433 135.951 436.69 135.656C435.95 135.361 435.375 134.907 434.964 134.294C434.557 133.678 434.351 132.889 434.347 131.929H437.306C437.325 132.281 437.412 132.576 437.569 132.815C437.726 133.054 437.947 133.235 438.231 133.358C438.518 133.482 438.86 133.543 439.256 133.543C439.588 133.543 439.867 133.502 440.091 133.42C440.315 133.338 440.485 133.224 440.601 133.078C440.717 132.932 440.776 132.766 440.78 132.579C440.776 132.404 440.718 132.251 440.606 132.12C440.498 131.985 440.319 131.866 440.068 131.761C439.818 131.653 439.48 131.552 439.054 131.459L437.911 131.212C436.895 130.992 436.094 130.624 435.507 130.108C434.925 129.589 434.635 128.881 434.639 127.985C434.635 127.256 434.829 126.619 435.222 126.074C435.618 125.525 436.165 125.097 436.863 124.791C437.566 124.484 438.371 124.331 439.278 124.331C440.205 124.331 441.006 124.486 441.682 124.796C442.358 125.106 442.88 125.543 443.246 126.107C443.615 126.668 443.802 127.323 443.806 128.074H440.825Z" fill="white"/>
</svg>
