<svg width="800" height="169" viewBox="0 0 800 169" fill="none" xmlns="http://www.w3.org/2000/svg">
<rect width="800" height="167.829" transform="translate(0.00317383 0.585571)" fill="black"/>
<path d="M254.471 88.9128C255.189 89.2514 255.499 90.1095 255.131 90.8127C251.755 97.2598 246.42 102.487 239.877 105.73C232.904 109.185 224.968 110.183 217.357 108.562C209.745 106.941 202.905 102.796 197.945 96.7995C192.985 90.8029 190.197 83.3063 190.032 75.526C189.868 67.7456 192.337 60.1379 197.039 53.9369C201.741 47.736 208.4 43.3055 215.936 41.3642C223.472 39.423 231.443 40.0848 238.555 43.2423C245.229 46.2052 250.781 51.2023 254.426 57.501C254.824 58.1879 254.55 59.0584 253.848 59.4271L238.46 67.4987C237.757 67.8674 236.894 67.5916 236.456 66.9293C234.959 64.6627 232.84 62.8616 230.339 61.7513C227.398 60.4459 224.103 60.1723 220.987 60.9749C217.872 61.7774 215.119 63.6091 213.175 66.1726C211.231 68.7362 210.21 71.8813 210.278 75.0978C210.346 78.3143 211.499 81.4135 213.55 83.8926C215.6 86.3717 218.428 88.0854 221.575 88.7555C224.722 89.4256 228.002 89.0129 230.885 87.5844C233.337 86.3695 235.378 84.4803 236.778 82.1525C237.187 81.4723 238.038 81.1602 238.756 81.4989L254.471 88.9128Z" fill="#E0002B" fill-opacity="0.99"/>
<path d="M206.846 62.3791L228.818 66.6269C229.587 66.7755 230.136 67.4474 230.041 68.2245C229.852 69.7726 229.304 72.4333 227.72 74.9819C226.193 77.4388 224.396 79.0004 223.269 79.8232C222.648 80.2768 221.812 80.1214 221.316 79.5334L206.846 62.3791Z" fill="black"/>
<path d="M206.846 87.0436L228.818 82.7959C229.587 82.6473 230.136 81.9753 230.041 81.1982C229.852 79.6501 229.304 76.9894 227.72 74.4408C226.193 71.9839 224.396 70.4224 223.269 69.5996C222.648 69.146 221.812 69.3013 221.316 69.8893L206.846 87.0436Z" fill="black"/>
<path d="M233.643 95.9718L236.84 96.5044L238.781 93.6979L238.266 99.1654L233.643 95.9718Z" fill="black"/>
<path d="M246.546 84.5961C246.546 84.5961 247.04 89.4433 244.328 90.6729C241.3 92.0455 239.875 87.6416 236.876 89.0761C233.792 90.5516 236.876 96.4391 236.876 96.4391" stroke="black" stroke-width="2.00447" stroke-linecap="round"/>
<path d="M197.359 119.896H194.79C194.772 119.683 194.723 119.49 194.644 119.317C194.568 119.144 194.462 118.995 194.325 118.871C194.192 118.743 194.029 118.646 193.838 118.579C193.646 118.509 193.429 118.475 193.186 118.475C192.761 118.475 192.401 118.578 192.107 118.784C191.815 118.991 191.593 119.287 191.442 119.673C191.293 120.058 191.218 120.522 191.218 121.062C191.218 121.633 191.294 122.111 191.446 122.497C191.601 122.88 191.824 123.168 192.116 123.363C192.407 123.554 192.758 123.65 193.168 123.65C193.402 123.65 193.612 123.621 193.797 123.563C193.982 123.502 194.143 123.416 194.28 123.303C194.416 123.191 194.527 123.056 194.612 122.898C194.7 122.737 194.76 122.556 194.79 122.356L197.359 122.374C197.329 122.769 197.218 123.171 197.027 123.581C196.835 123.988 196.564 124.365 196.211 124.711C195.862 125.054 195.429 125.331 194.913 125.54C194.397 125.75 193.797 125.855 193.113 125.855C192.257 125.855 191.489 125.671 190.808 125.303C190.131 124.936 189.595 124.395 189.2 123.682C188.808 122.968 188.613 122.095 188.613 121.062C188.613 120.023 188.813 119.149 189.214 118.438C189.615 117.724 190.155 117.185 190.836 116.821C191.516 116.453 192.275 116.27 193.113 116.27C193.703 116.27 194.245 116.35 194.74 116.511C195.235 116.672 195.669 116.907 196.043 117.217C196.416 117.524 196.717 117.902 196.945 118.352C197.173 118.801 197.311 119.316 197.359 119.896ZM203.137 120.115V122.01H198.764V120.115H203.137ZM204.342 118.438V116.397H212.451V118.438H209.645V125.727H207.148V118.438H204.342ZM214.65 125.727H211.917L214.996 116.397H218.459L221.538 125.727H218.805L216.764 118.967H216.691L214.65 125.727ZM214.14 122.046H219.279V123.941H214.14V122.046ZM230.509 116.397V125.727H228.396L225.024 120.825H224.97V125.727H222.437V116.397H224.587L227.904 121.281H227.976V116.397H230.509ZM234.24 116.397V125.727H231.707V116.397H234.24ZM240.47 119.313C240.446 119.009 240.332 118.772 240.129 118.602C239.928 118.432 239.623 118.347 239.213 118.347C238.952 118.347 238.738 118.379 238.571 118.443C238.407 118.503 238.285 118.587 238.206 118.693C238.127 118.799 238.086 118.921 238.083 119.058C238.077 119.17 238.097 119.272 238.142 119.363C238.191 119.451 238.267 119.531 238.37 119.604C238.473 119.674 238.605 119.738 238.766 119.796C238.927 119.853 239.119 119.905 239.34 119.951L240.106 120.115C240.622 120.224 241.064 120.368 241.431 120.547C241.799 120.727 242.1 120.938 242.333 121.181C242.567 121.42 242.739 121.691 242.848 121.991C242.961 122.292 243.018 122.62 243.021 122.975C243.018 123.589 242.865 124.108 242.561 124.533C242.258 124.959 241.823 125.282 241.258 125.504C240.696 125.726 240.021 125.836 239.231 125.836C238.42 125.836 237.713 125.716 237.108 125.476C236.507 125.237 236.039 124.868 235.705 124.369C235.374 123.868 235.207 123.228 235.204 122.447H237.609C237.624 122.732 237.696 122.972 237.823 123.167C237.951 123.361 238.13 123.508 238.361 123.609C238.595 123.709 238.873 123.759 239.195 123.759C239.465 123.759 239.691 123.726 239.873 123.659C240.056 123.592 240.194 123.499 240.288 123.381C240.382 123.262 240.431 123.127 240.434 122.975C240.431 122.833 240.384 122.708 240.293 122.602C240.204 122.493 240.059 122.395 239.855 122.31C239.652 122.222 239.377 122.14 239.031 122.064L238.101 121.864C237.275 121.685 236.624 121.386 236.147 120.966C235.673 120.544 235.438 119.969 235.441 119.24C235.438 118.648 235.596 118.13 235.915 117.686C236.237 117.24 236.681 116.892 237.249 116.643C237.82 116.394 238.475 116.27 239.213 116.27C239.966 116.27 240.618 116.396 241.167 116.648C241.717 116.9 242.141 117.255 242.438 117.714C242.739 118.169 242.891 118.702 242.894 119.313H240.47ZM243.73 118.438V116.397H251.839V118.438H249.032V125.727H246.536V118.438H243.73ZM257.821 119.313C257.797 119.009 257.683 118.772 257.48 118.602C257.279 118.432 256.974 118.347 256.564 118.347C256.303 118.347 256.089 118.379 255.922 118.443C255.758 118.503 255.636 118.587 255.557 118.693C255.478 118.799 255.437 118.921 255.434 119.058C255.428 119.17 255.448 119.272 255.493 119.363C255.542 119.451 255.618 119.531 255.721 119.604C255.825 119.674 255.957 119.738 256.118 119.796C256.279 119.853 256.47 119.905 256.692 119.951L257.457 120.115C257.973 120.224 258.415 120.368 258.783 120.547C259.15 120.727 259.451 120.938 259.685 121.181C259.918 121.42 260.09 121.691 260.199 121.991C260.312 122.292 260.37 122.62 260.373 122.975C260.37 123.589 260.216 124.108 259.912 124.533C259.609 124.959 259.174 125.282 258.61 125.504C258.048 125.726 257.372 125.836 256.582 125.836C255.771 125.836 255.064 125.716 254.459 125.476C253.858 125.237 253.39 124.868 253.056 124.369C252.725 123.868 252.558 123.228 252.555 122.447H254.96C254.976 122.732 255.047 122.972 255.175 123.167C255.302 123.361 255.481 123.508 255.712 123.609C255.946 123.709 256.224 123.759 256.546 123.759C256.816 123.759 257.042 123.726 257.225 123.659C257.407 123.592 257.545 123.499 257.639 123.381C257.733 123.262 257.782 123.127 257.785 122.975C257.782 122.833 257.735 122.708 257.644 122.602C257.556 122.493 257.41 122.395 257.206 122.31C257.003 122.222 256.728 122.14 256.382 122.064L255.452 121.864C254.626 121.685 253.975 121.386 253.498 120.966C253.024 120.544 252.789 119.969 252.792 119.24C252.789 118.648 252.947 118.13 253.266 117.686C253.588 117.24 254.033 116.892 254.601 116.643C255.172 116.394 255.826 116.27 256.564 116.27C257.317 116.27 257.969 116.396 258.518 116.648C259.068 116.9 259.492 117.255 259.789 117.714C260.09 118.169 260.242 118.702 260.245 119.313H257.821Z" fill="white"/>
<path d="M291.702 111.5V58.1222H314.742C318.704 58.1222 322.17 58.9041 325.141 60.4679C328.112 62.0317 330.423 64.2297 332.074 67.0619C333.725 69.8941 334.55 73.2042 334.55 76.9921C334.55 80.8147 333.699 84.1248 331.996 86.9222C330.31 89.7197 327.939 91.8743 324.881 93.3859C321.84 94.8976 318.287 95.6535 314.221 95.6535H300.459V84.3941H311.302C313.004 84.3941 314.455 84.0987 315.654 83.5079C316.87 82.8998 317.8 82.0397 318.443 80.9276C319.103 79.8156 319.433 78.5038 319.433 76.9921C319.433 75.463 319.103 74.1599 318.443 73.0826C317.8 71.9879 316.87 71.1539 315.654 70.5805C314.455 69.9897 313.004 69.6943 311.302 69.6943H306.193V111.5H291.702ZM358.398 112.23C354.124 112.23 350.44 111.413 347.347 109.78C344.272 108.129 341.9 105.766 340.232 102.691C338.581 99.5977 337.756 95.8967 337.756 91.5876C337.756 87.4522 338.59 83.8381 340.258 80.7452C341.926 77.6523 344.28 75.2458 347.321 73.5256C350.362 71.8055 353.95 70.9454 358.085 70.9454C361.109 70.9454 363.845 71.4145 366.295 72.3528C368.745 73.2911 370.839 74.6551 372.577 76.4447C374.314 78.2171 375.652 80.3716 376.59 82.9085C377.529 85.4453 377.998 88.3036 377.998 91.4833V94.8194H342.239V86.8962H364.758C364.74 85.7494 364.445 84.7416 363.871 83.8728C363.315 82.9867 362.56 82.3003 361.604 81.8138C360.666 81.3099 359.597 81.058 358.398 81.058C357.234 81.058 356.165 81.3099 355.192 81.8138C354.219 82.3003 353.437 82.978 352.847 83.8467C352.273 84.7155 351.969 85.732 351.934 86.8962V95.445C351.934 96.7307 352.204 97.8775 352.742 98.8853C353.281 99.8931 354.054 100.684 355.062 101.257C356.07 101.83 357.286 102.117 358.711 102.117C359.701 102.117 360.605 101.978 361.421 101.7C362.255 101.422 362.968 101.023 363.559 100.501C364.149 99.9626 364.584 99.3197 364.862 98.5726H377.998C377.546 101.353 376.477 103.768 374.792 105.818C373.106 107.851 370.874 109.432 368.094 110.562C365.331 111.674 362.099 112.23 358.398 112.23ZM398.255 88.9812V111.5H383.869V71.4666H397.526V79.0771H397.943C398.812 76.5403 400.341 74.5508 402.53 73.1086C404.737 71.6665 407.308 70.9454 410.245 70.9454C413.077 70.9454 415.536 71.597 417.621 72.9001C419.723 74.1859 421.348 75.9582 422.494 78.2171C423.659 80.4759 424.232 83.0562 424.215 85.9579V111.5H409.828V88.9812C409.845 87.0004 409.341 85.4453 408.316 84.3159C407.308 83.1865 405.901 82.6218 404.094 82.6218C402.912 82.6218 401.878 82.8824 400.992 83.4037C400.123 83.9076 399.454 84.6373 398.985 85.593C398.516 86.5313 398.273 87.6607 398.255 88.9812ZM455.191 71.4666V81.892H428.815V71.4666H455.191ZM433.923 61.8753H448.31V98.6247C448.31 99.1807 448.406 99.6498 448.597 100.032C448.788 100.397 449.083 100.675 449.483 100.866C449.883 101.04 450.395 101.127 451.021 101.127C451.455 101.127 451.959 101.075 452.532 100.97C453.123 100.866 453.558 100.779 453.836 100.71L455.921 110.822C455.278 111.013 454.357 111.248 453.158 111.526C451.976 111.804 450.569 111.987 448.936 112.073C445.634 112.247 442.863 111.908 440.622 111.057C438.38 110.188 436.695 108.824 435.565 106.965C434.436 105.106 433.888 102.777 433.923 99.98V61.8753ZM472.217 112.126C469.663 112.126 467.404 111.709 465.44 110.874C463.494 110.023 461.965 108.737 460.853 107.017C459.741 105.297 459.185 103.108 459.185 100.449C459.185 98.2598 459.559 96.3919 460.306 94.8455C461.053 93.2817 462.096 92.0046 463.433 91.0142C464.771 90.0238 466.327 89.2679 468.099 88.7467C469.889 88.2254 471.817 87.8866 473.885 87.7302C476.126 87.5564 477.925 87.3479 479.28 87.1047C480.653 86.844 481.643 86.4878 482.251 86.0361C482.859 85.5669 483.163 84.9501 483.163 84.1856V84.0813C483.163 83.0388 482.764 82.2395 481.965 81.6835C481.165 81.1275 480.14 80.8495 478.889 80.8495C477.516 80.8495 476.396 81.1535 475.527 81.7617C474.676 82.3524 474.163 83.2647 473.989 84.4983H460.749C460.923 82.0657 461.696 79.8243 463.069 77.774C464.459 75.7063 466.483 74.0556 469.141 72.8219C471.8 71.5709 475.119 70.9454 479.098 70.9454C481.965 70.9454 484.536 71.2842 486.812 71.9618C489.089 72.6221 491.026 73.5517 492.624 74.7506C494.223 75.9322 495.439 77.3222 496.273 78.9208C497.125 80.5019 497.55 82.2221 497.55 84.0813V111.5H484.102V105.87H483.789C482.99 107.365 482.017 108.572 480.87 109.493C479.74 110.414 478.446 111.083 476.986 111.5C475.544 111.917 473.954 112.126 472.217 112.126ZM476.908 103.055C478.003 103.055 479.028 102.83 479.984 102.378C480.957 101.926 481.747 101.274 482.356 100.423C482.964 99.5717 483.268 98.5378 483.268 97.3215V93.9854C482.885 94.1418 482.477 94.2895 482.043 94.4285C481.626 94.5675 481.174 94.6978 480.687 94.8194C480.218 94.9411 479.714 95.054 479.176 95.1583C478.655 95.2625 478.107 95.3581 477.534 95.445C476.422 95.6187 475.51 95.9054 474.797 96.305C474.102 96.6873 473.581 97.1651 473.233 97.7385C472.903 98.2946 472.738 98.9201 472.738 99.6151C472.738 100.727 473.129 101.579 473.911 102.169C474.693 102.76 475.692 103.055 476.908 103.055ZM523.712 112.23C519.368 112.23 515.649 111.37 512.556 109.649C509.464 107.912 507.092 105.497 505.441 102.404C503.79 99.2936 502.965 95.6882 502.965 91.5876C502.965 87.4869 503.79 83.8902 505.441 80.7973C507.092 77.6871 509.464 75.2719 512.556 73.5517C515.649 71.8142 519.368 70.9454 523.712 70.9454C527.638 70.9454 531.035 71.6578 533.902 73.0826C536.787 74.49 539.019 76.4882 540.601 79.0771C542.182 81.6487 542.981 84.6721 542.999 88.1472H529.654C529.463 86.0448 528.855 84.4462 527.83 83.3515C526.822 82.2395 525.519 81.6835 523.92 81.6835C522.669 81.6835 521.574 82.0484 520.636 82.7781C519.698 83.4905 518.968 84.5765 518.447 86.0361C517.926 87.4782 517.665 89.294 517.665 91.4833C517.665 93.6726 517.926 95.4971 518.447 96.9566C518.968 98.3988 519.698 99.4848 520.636 100.215C521.574 100.927 522.669 101.283 523.92 101.283C524.98 101.283 525.918 101.04 526.735 100.553C527.552 100.049 528.212 99.3197 528.716 98.3641C529.237 97.391 529.55 96.2095 529.654 94.8194H542.999C542.946 98.3467 542.138 101.422 540.575 104.046C539.011 106.652 536.795 108.668 533.928 110.093C531.079 111.517 527.673 112.23 523.712 112.23ZM563.321 58.1222V111.5H548.934V58.1222H563.321ZM589.834 112.23C585.56 112.23 581.876 111.413 578.784 109.78C575.708 108.129 573.336 105.766 571.668 102.691C570.018 99.5977 569.192 95.8967 569.192 91.5876C569.192 87.4522 570.026 83.8381 571.694 80.7452C573.362 77.6523 575.717 75.2458 578.757 73.5256C581.798 71.8055 585.386 70.9454 589.522 70.9454C592.545 70.9454 595.282 71.4145 597.732 72.3528C600.182 73.2911 602.275 74.6551 604.013 76.4447C605.75 78.2171 607.088 80.3716 608.027 82.9085C608.965 85.4453 609.434 88.3036 609.434 91.4833V94.8194H573.675V86.8962H596.194C596.176 85.7494 595.881 84.7416 595.308 83.8728C594.752 82.9867 593.996 82.3003 593.04 81.8138C592.102 81.3099 591.033 81.058 589.834 81.058C588.67 81.058 587.602 81.3099 586.629 81.8138C585.656 82.3003 584.874 82.978 584.283 83.8467C583.709 84.7155 583.405 85.732 583.371 86.8962V95.445C583.371 96.7307 583.64 97.8775 584.179 98.8853C584.717 99.8931 585.49 100.684 586.498 101.257C587.506 101.83 588.722 102.117 590.147 102.117C591.138 102.117 592.041 101.978 592.858 101.7C593.692 101.422 594.404 101.023 594.995 100.501C595.586 99.9626 596.02 99.3197 596.298 98.5726H609.434C608.982 101.353 607.914 103.768 606.228 105.818C604.543 107.851 602.31 109.432 599.53 110.562C596.767 111.674 593.535 112.23 589.834 112.23Z" fill="white"/>
</svg>
